<svg xmlns="http://www.w3.org/2000/svg" width="511pt" height="511pt" viewBox="0 0 511.999 511"><path fill="#6fc4fc" d="M165.621 300.738c0-94.093 75.555-170.37 168.758-170.37 90.703 0 164.68 72.245 168.582 162.843a259.4 259.4 0 0 0 2.719-37.477C505.68 114.774 392.492.5 252.863.5 113.238.5.047 114.773.047 255.734s113.191 255.23 252.816 255.23c63.52 0 121.563-23.652 165.969-62.702-24.84 14.523-53.684 22.843-84.453 22.843-93.203 0-168.758-76.277-168.758-170.367m0 0"/><path fill="#51b1f0" d="M62.84 307.758c-3.8 0-7.117-2.805-7.649-6.676a236 236 0 0 1-2.14-28.152c-.762-46.907 12.379-92.352 38.004-131.43l15.777-24.402c2.316-3.582 7.102-4.606 10.684-2.293a7.733 7.733 0 0 1 2.293 10.687L104 149.93c-23.945 36.52-36.21 78.953-35.5 122.746a221 221 0 0 0 2.004 26.304 7.725 7.725 0 0 1-6.606 8.704 7.5 7.5 0 0 1-1.058.074m100.605 122.594a7.72 7.72 0 0 1-5.886-2.715c-37.973-44.532-56.243-101.324-51.434-159.918 4.121-50.207 25.508-97.735 60.227-133.852l15.304-17.637a7.72 7.72 0 0 1 10.899-.77 7.725 7.725 0 0 1 .773 10.9l-15.433 17.785q-.134.151-.274.296c-32.34 33.579-52.262 77.809-56.094 124.543-4.468 54.465 12.504 107.25 47.793 148.63a7.728 7.728 0 0 1-5.875 12.738m0 0"/><path fill="#9ad5fc" d="M505.418 255.625C505.418 114.723 392.273.5 252.707.5S0 114.723 0 255.625c0 4.902.152 9.77.422 14.605 5.691-75.664 68.308-135.273 144.715-135.273 80.156 0 145.136 65.602 145.136 146.523zm0 0"/><path fill="#6fc4fc" d="M252.707.5c-5.71 0-11.375.21-16.996.586C367.348 9.914 471.42 120.492 471.42 255.62l-181.206 21.781q.058 2.034.058 4.078l215.145-25.859C505.418 114.723 392.278.5 252.707.5m0 0"/><path fill="#e6f2ff" d="M478.25 235.273c-11.598-3.601-23.512-2.523-33.758 2.157-5.746-18.75-23.05-32.371-43.508-32.371s-37.761 13.62-43.504 32.37a48 48 0 0 0-5.617-2.156c-25.234-7.843-51.992 6.45-59.765 31.926-7.77 25.477 6.39 52.488 31.625 60.332a47.1 47.1 0 0 0 22.12 1.446c4.364 19.234 18.473 35.656 38.493 41.882 29.86 9.282 61.516-7.629 70.707-37.773a56 56 0 0 0 1.074-4.117c23.344 4.058 46.598-9.903 53.75-33.36 7.774-25.476-6.383-52.488-31.617-60.336m19.46 247.177c-2.28-13.7-15.233-22.962-28.937-20.68-13.699 2.28-22.96 15.234-20.68 28.937 2.278 13.7 15.235 22.961 28.934 20.68 13.703-2.278 22.961-15.235 20.684-28.938m6.191-113.621c-8.453-5.797-20.007-3.644-25.804 4.813-5.797 8.453-3.645 20.007 4.812 25.804 8.453 5.801 20.008 3.645 25.805-4.812 5.8-8.453 3.644-20.008-4.813-25.805M347.297 397.04c-5.149-4.43-12.91-3.845-17.34 1.304-4.43 5.148-3.848 12.91 1.3 17.34 5.153 4.43 12.915 3.847 17.345-1.301 4.43-5.153 3.843-12.914-1.305-17.344m0 0"/><path fill="#cfe9ff" d="M399.71 352.57c-4.269 0-7.726-3.457-7.726-7.726s3.457-7.727 7.727-7.727c11.644 0 21.117-9.472 21.117-21.117a7.726 7.726 0 0 1 7.727-7.727A7.724 7.724 0 0 1 436.28 316c0 20.164-16.406 36.57-36.57 36.57m0 0"/></svg>
