<svg xmlns="http://www.w3.org/2000/svg" width="34" height="34" fill="none" viewBox="33 33 34 34"><path fill="#fff" d="M50.018 33h.07a3.92 3.92 0 0 1 2.583.908l.086.07a3.82 3.82 0 0 1 1.363 2.484c.022.44.034.888-.056 1.321l-.015.071c-.042.176-.108.342-.174.51l-.03.074-.07.18.063.001 2.267.011.986.005c.698.002 1.39.033 2.068.206l.103.025a7.5 7.5 0 0 1 1.583.615l.063.032c.747.386 1.472.924 2.006 1.56l.093.108c.938 1.089 1.475 2.376 1.666 3.774l.013.088a2.5 2.5 0 0 1-.025.673c-.33 2.287.796 4.081 1.916 6.007l.192.329c.154.264.225.483.228.79l.003.128c-.022.355-.217.684-.382.994l-.06.112q-.13.249-.266.495-.291.53-.569 1.068l-.04.076-.285.552-.29.557-.114.222-.07.134-.06.119c-.053.096-.053.096-.122.195a3 3 0 0 0-.01.332l-.002.438q-.003.383-.003.767c-.009 2.29-.51 4.227-2.192 5.927l-.064.066c-1.172 1.17-2.99 1.924-4.674 1.97a25 25 0 0 1-.636.001h-.54l-.585.001H53.56l-1.809.001h-2.879a1759 1759 0 0 1-3.846.002h-1.709c-1.499.004-1.499.004-2.199-.15l-.09-.02a7.3 7.3 0 0 1-1.841-.676l-.071-.037a7 7 0 0 1-1.515-1.091l-.055-.05c-1.208-1.107-1.935-2.615-2.153-4.196l-.01-.063c-.035-.27-.023-.54-.016-.812q.005-.285.006-.57.002-.248.008-.495c.025-.892-.068-1.538-.572-2.297a6 6 0 0 1-.278-.49l-.098-.181-.44-.82a138 138 0 0 0-.709-1.312l-.102-.192-.054-.102a1.3 1.3 0 0 1-.125-.589L33 52.725c.018-.335.186-.625.342-.918l.06-.114q.178-.334.36-.667a79 79 0 0 0 .838-1.573c.087-.167.177-.33.281-.488.483-.733.515-1.384.49-2.238q-.009-.385-.01-.77l-.004-.276a6 6 0 0 1 .128-1.38q.03-.15.069-.296l.026-.103a7 7 0 0 1 .364-1.004l.033-.075c.484-1.093 1.324-2.071 2.312-2.778l.059-.042a7.2 7.2 0 0 1 3.295-1.301c.48-.063.96-.062 1.445-.064l.278-.002.653-.004.744-.004 1.528-.01-.044-.102-.057-.136-.028-.067a2.7 2.7 0 0 1-.158-.5q-.007-.038-.017-.078a3.2 3.2 0 0 1-.08-.654c-.02-1.107.38-2.109 1.169-2.915a4.16 4.16 0 0 1 1.653-.983l.088-.03c.397-.122.785-.154 1.2-.153m-7.556 14.244-.098.07c-.736.549-1.119 1.349-1.247 2.219-.02.211-.018.423-.017.636v1.176l.001.857v.987a338 338 0 0 0 .002 2.009c-.002.903.231 1.75.877 2.429l.078.084c.587.603 1.425.94 2.277.977.835.02 1.681-.246 2.3-.796l.101-.087c.594-.533 1.013-1.3 1.042-2.092v-.14l.001-.337v-.186l.002-.504v-.316l.003-2.129.002-1.408v-.677c.006-.96-.306-1.8-1-2.5a3.54 3.54 0 0 0-2.47-.912 3.4 3.4 0 0 0-1.854.64m10.307.394a5 5 0 0 0-.34.435l-.055.078c-.395.589-.477 1.244-.476 1.926v2.138l-.002 1.04-.001 1.428v.685c-.006.957.31 1.8 1.018 2.491.639.58 1.458.877 2.33.904a3.6 3.6 0 0 0 2.457-1.052c.675-.75.88-1.607.878-2.581l.001-.66v-1.358a355 355 0 0 1 .002-1.825v-.976l.001-.172c.004-.895-.202-1.747-.84-2.43l-.046-.049a3.4 3.4 0 0 0-.852-.648q-.048-.03-.1-.057c-1.304-.69-2.973-.326-3.975.683"/></svg>
