<svg xmlns="http://www.w3.org/2000/svg" width="14" height="14" fill="currentColor" viewBox="0 0 44 50"><path d="m1.117 20.553 5.351 3.089c.192.111.406.165.621.165s.429-.057.621-.165l5.351-3.089.022-.017q.122-.074.227-.175l.03-.032q.09-.096.158-.207.013-.017.022-.035a1.2 1.2 0 0 0 .108-.259l.015-.059c.022-.094.039-.19.039-.291v-3.089c0-1.192.643-2.303 1.675-2.9s2.316-.596 3.35 0l2.675 1.545q.13.072.271.111l.059.017q.138.034.278.037h.012c.01 0 .02-.005.029-.005a1 1 0 0 0 .256-.035q.023-.004.044-.01.137-.038.264-.108c.007-.005.017-.005.025-.01l5.351-3.089c.384-.222.621-.631.621-1.074V4.69c0-.443-.236-.852-.621-1.074L22.615.529a1.24 1.24 0 0 0-1.239 0l-5.351 3.089-.022.017a1.3 1.3 0 0 0-.227.175l-.03.032a1.3 1.3 0 0 0-.158.207l-.022.034a1.2 1.2 0 0 0-.108.259l-.015.059c-.022.094-.039.19-.039.291v3.089a3.37 3.37 0 0 1-1.675 2.902 3.36 3.36 0 0 1-3.35 0L7.705 9.139a1.3 1.3 0 0 0-.271-.111l-.059-.017a1.4 1.4 0 0 0-.279-.037h-.042a1 1 0 0 0-.301.044q-.136.038-.263.109c-.007.005-.017.005-.025.01l-5.348 3.092a1.24 1.24 0 0 0-.621 1.074v6.178c0 .444.236.852.621 1.074zm29.145 1.544a3.36 3.36 0 0 1 3.35 0l2.675 1.545q.13.072.271.111l.059.017q.138.033.278.037h.012q.015-.001.029-.005.13 0 .256-.034.023-.003.044-.01.135-.038.264-.108c.007-.005.017-.005.027-.01l5.351-3.089c.384-.222.621-.631.621-1.074v-6.179c0-.443-.237-.852-.621-1.074l-5.348-3.09a1.24 1.24 0 0 0-1.239 0l-5.351 3.089-.022.017a1.3 1.3 0 0 0-.227.175l-.029.032a1.3 1.3 0 0 0-.158.207c-.007.012-.017.022-.022.035a1.2 1.2 0 0 0-.108.259l-.015.059c-.022.094-.039.19-.039.291v3.089a3.37 3.37 0 0 1-1.675 2.902 3.36 3.36 0 0 1-3.35 0l-2.675-1.545a1.2 1.2 0 0 0-.271-.111l-.059-.017a1.3 1.3 0 0 0-.278-.037h-.042a1 1 0 0 0-.259.035q-.021.003-.042.01-.137.038-.264.108c-.007.005-.017.005-.025.01l-5.351 3.089a1.24 1.24 0 0 0-.621 1.074v6.179c0 .443.236.852.621 1.074l5.351 3.089s.017.005.025.01q.127.071.264.108c.015.005.03.005.044.01q.127.03.256.035c.01 0 .02.005.03.005h.012a1.2 1.2 0 0 0 .337-.054q.141-.039.271-.111l2.675-1.545a3.36 3.36 0 0 1 3.35 0 3.36 3.36 0 0 1 1.675 2.9v3.089q.002.15.039.291l.015.059q.039.136.108.259l.022.034q.068.111.158.207l.029.032q.1.098.227.175.009.009.022.017l5.351 3.089c.192.111.407.165.621.165s.429-.057.621-.165l5.351-3.089c.384-.222.621-.631.621-1.074v-6.179c0-.443-.236-.852-.621-1.074l-5.351-3.089s-.017-.005-.025-.01a1 1 0 0 0-.264-.108c-.015-.005-.027-.005-.042-.01a1.3 1.3 0 0 0-.261-.035h-.039a1.2 1.2 0 0 0-.335.054 1.2 1.2 0 0 0-.271.111l-2.675 1.545a3.36 3.36 0 0 1-3.348 0 3.36 3.36 0 0 1-1.675-2.902c0-1.195.643-2.303 1.675-2.9zm-2.295 15.957-5.351-3.089s-.017-.005-.025-.01a1 1 0 0 0-.264-.108c-.015-.005-.03-.005-.044-.01a1.3 1.3 0 0 0-.259-.035h-.042a1.2 1.2 0 0 0-.335.054 1.2 1.2 0 0 0-.271.111l-2.675 1.545a3.36 3.36 0 0 1-3.348 0 3.36 3.36 0 0 1-1.675-2.902v-3.09q-.002-.15-.039-.291l-.015-.059a1.3 1.3 0 0 0-.108-.259l-.022-.035a1.3 1.3 0 0 0-.158-.207l-.03-.032a1.2 1.2 0 0 0-.227-.175l-.022-.017-5.351-3.089a1.24 1.24 0 0 0-1.239 0l-5.351 3.089a1.24 1.24 0 0 0-.621 1.074v6.179c0 .443.236.852.621 1.074l5.351 3.089.025.01q.125.071.261.108l.044.01q.127.03.256.035c.01 0 .02.005.032.005H7.1a1.2 1.2 0 0 0 .335-.054q.142-.039.271-.111l2.675-1.545a3.36 3.36 0 0 1 3.35 0 3.36 3.36 0 0 1 1.675 2.9v3.089q.002.15.039.291l.015.059q.04.136.108.259l.022.035q.068.111.158.207l.03.032q.1.099.227.175l.022.017 5.351 3.089c.192.111.406.165.621.165s.429-.057.621-.165l5.351-3.089c.384-.222.621-.631.621-1.074V39.13c0-.443-.236-.852-.621-1.074z"/></svg>
