<svg xmlns="http://www.w3.org/2000/svg" width="34.804" height="33.994" fill="none" viewBox="33.003 33.004 34.804 33.994"><path fill="#fafafa" d="M58.036 38.899a.47.47 0 0 1-.305-.238.45.45 0 0 1-.015-.381c.894-2.126 1.289-3.826.652-4.538-1.686-1.889-8.448 1.867-10.604 3.139a.475.475 0 0 1-.674-.217c-.906-2.121-1.859-3.596-2.825-3.66-2.56-.171-4.623 7.155-5.227 9.543a.45.45 0 0 1-.243.298.48.48 0 0 1-.39.014c-2.176-.873-3.918-1.258-4.646-.636-1.933 1.647 1.911 8.251 3.213 10.357a.45.45 0 0 1-.058.547.5.5 0 0 1-.164.112c-2.17.885-3.68 1.815-3.747 2.759-.174 2.5 7.326 4.515 9.771 5.105a.47.47 0 0 1 .305.238.45.45 0 0 1 .014.38c-.894 2.126-1.288 3.827-.652 4.538 1.686 1.889 8.45-1.866 10.605-3.138a.48.48 0 0 1 .56.057q.076.069.114.16c.907 2.12 1.859 3.595 2.825 3.66 2.56.17 4.623-7.155 5.226-9.544a.45.45 0 0 1 .244-.298.48.48 0 0 1 .39-.013c2.176.873 3.917 1.257 4.646.636 1.934-1.647-1.912-8.252-3.214-10.358a.45.45 0 0 1 .059-.547.5.5 0 0 1 .164-.111c2.17-.886 3.681-1.816 3.747-2.76.175-2.5-7.326-4.515-9.77-5.104M55.1 36.502c.492.862-2.044 6.601-3.93 10.616a.37.37 0 0 1-.148.16.38.38 0 0 1-.422-.03.36.36 0 0 1-.122-.181c-.761-2.61-1.632-5.677-2.563-8.281a.45.45 0 0 1 .005-.315.46.46 0 0 1 .213-.236c2.326-1.241 6.306-2.889 6.967-1.733m-11.147.71c.971.27 3.334 6.08 4.906 10.22a.35.35 0 0 1-.106.4.38.38 0 0 1-.42.043c-2.43-1.318-5.264-2.887-7.808-4.085a.46.46 0 0 1-.223-.226.45.45 0 0 1-.021-.314c.748-2.482 2.367-6.398 3.672-6.037m-7.367 8.202c.88-.48 6.758 1.996 10.867 3.838q.106.046.165.145a.35.35 0 0 1-.032.412.37.37 0 0 1-.185.119c-2.672.744-5.813 1.594-8.478 2.504-.105.035-.219.033-.322-.006s-.189-.112-.242-.207c-1.268-2.272-2.958-6.16-1.774-6.805m.727 10.887c.275-.948 6.223-3.256 10.463-4.792a.38.38 0 0 1 .41.104.36.36 0 0 1 .043.41c-1.35 2.374-2.957 5.142-4.183 7.626a.46.46 0 0 1-.231.219.48.48 0 0 1-.322.02c-2.54-.727-6.55-2.313-6.18-3.587m8.396 7.196c-.493-.86 2.044-6.6 3.93-10.615a.377.377 0 0 1 .57-.13.36.36 0 0 1 .122.182c.761 2.61 1.632 5.677 2.563 8.28a.45.45 0 0 1-.219.551c-2.325 1.238-6.305 2.89-6.963 1.732zm11.147-.71c-.972-.269-3.335-6.079-4.907-10.22a.35.35 0 0 1 .106-.4.37.37 0 0 1 .42-.042c2.43 1.317 5.265 2.888 7.808 4.085.1.047.18.127.224.226.045.1.052.21.02.314-.748 2.486-2.367 6.398-3.671 6.037m7.367-8.201c-.882.481-6.758-1.996-10.868-3.838a.37.37 0 0 1-.165-.145.355.355 0 0 1 .032-.412.37.37 0 0 1 .185-.119c2.673-.744 5.813-1.594 8.478-2.504a.48.48 0 0 1 .322.006c.104.039.19.113.242.208 1.268 2.27 2.958 6.159 1.774 6.804m-.727-10.888c-.276.95-6.224 3.257-10.463 4.793a.38.38 0 0 1-.41-.103.36.36 0 0 1-.043-.412c1.349-2.372 2.956-5.141 4.182-7.625a.46.46 0 0 1 .232-.218.48.48 0 0 1 .321-.02c2.54.73 6.55 2.311 6.181 3.585"/></svg>
