<svg xmlns="http://www.w3.org/2000/svg" width="32" height="32" fill="none" viewBox="34 34.001 32 32"><clipPath id="a"><path d="M34 34h32v32H34z"/></clipPath><g clip-path="url(#a)"><path fill="#fff" fill-rule="evenodd" d="M62.793 65.48C64.35 65.143 66 64.223 66 64.223l-2.89-2.379a16.2 16.2 0 0 1-3.593-4.174 16.2 16.2 0 0 0-5.293-5.399l-1.059-.616a1.49 1.49 0 0 1-.65-1.087 1.13 1.13 0 0 1 .205-.766c.55-.776 3.397-4.154 3.92-4.587.67-.555 1.42-1.016 2.114-1.545q.15-.112.295-.227.008-.004.012-.01c.223-.174.433-.362.6-.583.604-.699.75-1.318.787-1.59-.082-.264-.326-.853-1.004-1.532.425.027.94.363 1.408.76.313-.502.641-1.032.97-1.562.22-.355-.108-.62-.116-.628v-.003c-.01-.01-.276-.333-.629-.115-.756.467-1.512.936-2.185 1.362 0 0-.796-.016-1.74.798q-.331.263-.584.6l-.01.012q-.115.145-.226.295c-.53.695-.99 1.444-1.547 2.116-.43.521-3.81 3.368-4.587 3.92a1.12 1.12 0 0 1-.765.204 1.49 1.49 0 0 1-1.087-.65l-.616-1.06a16.16 16.16 0 0 0-5.398-5.293 16.2 16.2 0 0 1-4.174-3.593L35.776 34s-.919 1.651-1.256 3.207c.47.571 1.693 1.987 3.12 3.07a96 96 0 0 1-3.56-1.743c-.138 1.02-.084 2.56.057 3.755.968.422 2.615 1.074 4.292 1.421-1.341.315-2.813.37-3.948.35.2.738.477 1.491.853 2.25q.24.526.52 1.027c.603.166 2.963.51 4.22.228l-3.348 1.196a37 37 0 0 0 3.392 3.634c2.708-1.456 3.326-1.654 5.358-2.984-3.29 2.678-4.144 3.771-5.067 4.894l-.644.904a9.3 9.3 0 0 0-.867 1.49c-.813 1.746-1.96 5.466-1.96 5.466-.205.648.27 1.122.9.898 0 0 3.72-1.148 5.466-1.96a9.4 9.4 0 0 0 1.49-.866l.903-.644c.303-.25.604-.494.935-.782 0 0 2.273 2.694 4.61 4.466l1.195-3.348c-.281 1.256.061 3.616.227 4.217q.503.284 1.03.523c.758.373 1.511.653 2.25.853-.022-1.137.034-2.608.348-3.95.346 1.678 1 3.325 1.422 4.293 1.194.141 2.735.194 3.755.057a99 99 0 0 1-1.744-3.56c1.081 1.427 2.499 2.65 3.07 3.12z" clip-rule="evenodd"/></g></svg>
