<svg xmlns="http://www.w3.org/2000/svg" width="29.61" height="36" fill="none" viewBox="35 32.001 29.61 36"><mask id="a" width="30" height="37" x="35" y="32" maskUnits="userSpaceOnUse"><path fill="#fff" d="M64.61 32H35v36h29.61z"/></mask><g mask="url(#a)"><path fill="#fff" d="M40.701 59.898c-3.723 8.246 4.208 10.316 10.058 5.49 1.721 5.411 8.167 1.373 10.485-2.824 5.096-9.247 3.037-18.675 2.509-20.62-3.623-13.265-21.735-13.287-24.852.067-.73 2.34-.742 4.995-1.147 7.75-.203 1.396-.36 2.285-.889 3.747-.315.844-.731 1.586-1.406 2.846-1.035 1.958-.596 5.727 4.759 3.77l.506-.226z"/><path fill="#000" d="M51.458 47.693c-1.485 0-1.71-1.778-1.71-2.835 0-.956.17-1.71.496-2.194.28-.427.697-.641 1.214-.641.518 0 .968.214 1.283.652.36.495.551 1.249.551 2.183 0 1.777-.686 2.835-1.822 2.835zm6.119 0c-1.485 0-1.71-1.778-1.71-2.835 0-.956.168-1.71.495-2.194.28-.427.697-.641 1.215-.641.517 0 .967.214 1.282.652.36.495.551 1.249.551 2.183 0 1.777-.686 2.835-1.822 2.835z"/></g></svg>
