<svg xmlns="http://www.w3.org/2000/svg" width="40" height="28.205" fill="none" viewBox="30 35.898 40 28.205"><path fill="#fff" d="M65.77 35.898a.77.77 0 0 1 .768.77v4.487h2.693a.77.77 0 0 1 .769.769v6.41a.77.77 0 0 1-.77.77h-2.692v7.692q0 .031-.004.063.003.032.004.065v6.41a.77.77 0 0 1-.768.77h-3.59a.77.77 0 0 1-.77-.77v-5.769h-1.667v5.769a.77.77 0 0 1-.768.77h-3.59a.77.77 0 0 1-.77-.77v-5.769h-9.358v5.769a.77.77 0 0 1-.77.77h-3.59a.77.77 0 0 1-.77-.77v-5.769h-1.665v5.769a.77.77 0 0 1-.77.77h-3.59a.77.77 0 0 1-.769-.77v-6.41l.003-.065-.003-.063v-7.692H30.77a.77.77 0 0 1-.77-.77v-6.41a.77.77 0 0 1 .77-.769h2.563v-4.487a.77.77 0 0 1 .77-.77z"/><path fill="#000" d="M37.923 47.019v-1.486l4.297-1.81v.604l-4.297-1.81v-1.475l4.975 2.1v1.777zm24.206 0-4.976-2.1v-1.777l4.976-2.1v1.475l-4.297 1.81v-.604l4.297 1.81z"/></svg>
