<svg xmlns="http://www.w3.org/2000/svg" id="Layer_1" viewBox="0 0 511 509.5"><path d="M165.3 299.7c0-93.9 75.4-170 168.4-170S498.1 201.8 502 292.2c1.8-12.4 2.7-24.9 2.7-37.4C504.7 114.1 391.7 0 252.4 0S0 114.1 0 254.7s113 254.7 252.3 254.7 121.3-23.6 165.6-62.6c-24.8 14.5-53.6 22.8-84.3 22.8-93 0-168.4-76.1-168.4-170" style="fill:#6fc4fc"/><path d="M62.7 306.7c-3.8 0-7.1-2.8-7.6-6.7-1.3-9.3-2-18.7-2.1-28.1-.8-46.8 12.4-92.2 37.9-131.2l15.7-24.4c2.3-3.6 7.1-4.6 10.7-2.3s4.6 7.1 2.3 10.7l-15.8 24.4c-23.9 36.4-36.1 78.8-35.4 122.5.1 8.8.8 17.5 2 26.3.6 4.2-2.4 8.1-6.6 8.7h-1.1M163.1 429c-2.3 0-4.4-1-5.9-2.7-37.9-44.4-56.1-101.1-51.3-159.6 4.1-50.1 25.5-97.5 60.1-133.6l15.3-17.6c2.8-3.2 7.7-3.6 10.9-.8s3.6 7.7.8 10.9l-15.4 17.8c0 .1-.2.2-.3.3-32.3 33.5-52.2 77.7-56 124.3-4.5 54.4 12.5 107 47.7 148.3 2.8 3.2 2.4 8.1-.9 10.9-1.4 1.2-3.2 1.8-5 1.8" style="fill:#51b1f0"/><path d="M504.4 254.6C504.4 114 391.5 0 252.2 0S0 114 0 254.6s.2 9.8.4 14.6c5.7-75.5 68.2-135 144.4-135s144.9 65.5 144.9 146.2z" style="fill:#9ad5fc"/><path d="M252.2 0c-5.7 0-11.4.2-17 .6 131.4 8.8 235.2 119.2 235.2 254l-180.9 21.7v4.1l214.7-25.8C504.2 114 391.3 0 252 0" style="fill:#6fc4fc"/><path d="M477.3 234.3c-11.6-3.6-23.5-2.5-33.7 2.2-5.7-18.7-23-32.3-43.4-32.3s-37.7 13.6-43.4 32.3c-1.8-.8-3.7-1.6-5.6-2.2-25.2-7.8-51.9 6.4-59.6 31.9-7.8 25.4 6.4 52.4 31.6 60.2 7.1 2.2 14.7 2.7 22.1 1.4 4.4 19.2 18.4 35.6 38.4 41.8 29.8 9.3 61.4-7.6 70.6-37.7.4-1.4.8-2.7 1.1-4.1 23.3 4.1 46.5-9.9 53.6-33.3 7.8-25.4-6.4-52.4-31.6-60.2" style="fill:#e6f2ff"/><path d="M398.9 351.4c-4.3 0-7.7-3.5-7.7-7.7s3.5-7.7 7.7-7.7c11.6 0 21.1-9.5 21.1-21.1 0-4.3 3.5-7.7 7.7-7.7 4.3 0 7.7 3.5 7.7 7.7 0 20.1-16.4 36.5-36.5 36.5" style="fill:#cfe9ff"/></svg>
