<svg xmlns="http://www.w3.org/2000/svg" id="Layer_1" data-name="Layer 1" viewBox="0 0 64 64"><path d="M60 27a2 2 0 0 0 0-4h-4v-3h4a2 2 0 0 0 0-4h-4.19A10 10 0 0 0 48 8.19V4a2 2 0 0 0-4 0v4h-3V4a2 2 0 0 0-4 0v4h-3V4a2 2 0 0 0-4 0v4h-3V4a2 2 0 0 0-4 0v4h-3V4a2 2 0 0 0-4 0v4.19A10 10 0 0 0 8.19 16H4a2 2 0 0 0 0 4h4v3H4a2 2 0 0 0 0 4h4v3H4a2 2 0 0 0 0 4h4v3H4a2 2 0 0 0 0 4h4v3H4a2 2 0 0 0 0 4h4.19A10 10 0 0 0 16 55.81V60a2 2 0 0 0 4 0v-4h3v4a2 2 0 0 0 4 0v-4h3v4a2 2 0 0 0 4 0v-4h3v4a2 2 0 0 0 4 0v-4h3v4a2 2 0 0 0 4 0v-4.19A10 10 0 0 0 55.81 48H60a2 2 0 0 0 0-4h-4v-3h4a2 2 0 0 0 0-4h-6a2 2 0 0 0-2 2v7.07A5.94 5.94 0 0 1 46.07 52H17.93A5.94 5.94 0 0 1 12 46.07V17.93A5.94 5.94 0 0 1 17.93 12h28.14A5.94 5.94 0 0 1 52 17.93V32a2 2 0 0 0 2 2h6a2 2 0 0 0 0-4h-4v-3Z"/><path d="M27.19 33.74h3.83l-1.91-5.48z"/><path d="M46 16H18a2 2 0 0 0-2 2v28a2 2 0 0 0 2 2h28a2 2 0 0 0 2-2V18a2 2 0 0 0-2-2m-9.46 23.39a.44.44 0 0 1-.31.14h-2.8a.75.75 0 0 1-.73-.47L31.92 37h-5.63l-.78 2.09a.74.74 0 0 1-.73.47H22a.43.43 0 0 1-.31-.14.41.41 0 0 1-.14-.31.6.6 0 0 1 0-.2l5-13.79a.84.84 0 0 1 .86-.62h3.35a.86.86 0 0 1 .87.62l5 13.79a1 1 0 0 1 0 .2.44.44 0 0 1-.09.28m5.92-.4a.55.55 0 0 1-.15.38.53.53 0 0 1-.38.16h-3.08a.55.55 0 0 1-.54-.54V25a.53.53 0 0 1 .16-.39.55.55 0 0 1 .38-.15h3.08a.52.52 0 0 1 .38.15.53.53 0 0 1 .15.39Z"/></svg>
